<svg xmlns="http://www.w3.org/2000/svg" xmlns:xlink="http://www.w3.org/1999/xlink" viewBox="0,0,256,256" width="50px" height="50px" fill-rule="nonzero"><g fill-opacity="0.36078" fill="#bb1b1b" fill-rule="nonzero" stroke="none" stroke-width="1" stroke-linecap="butt" stroke-linejoin="miter" stroke-miterlimit="10" stroke-dasharray="" stroke-dashoffset="0" font-family="none" font-weight="none" font-size="none" text-anchor="none" style="mix-blend-mode: normal"><path d="M0,256v-256h256v256z" id="bgRectangle"></path></g><g fill="#000000" fill-rule="nonzero" stroke="none" stroke-width="1" stroke-linecap="butt" stroke-linejoin="miter" stroke-miterlimit="10" stroke-dasharray="" stroke-dashoffset="0" font-family="none" font-weight="none" font-size="none" text-anchor="none" style="mix-blend-mode: normal"><g transform="scale(5.12,5.12)"><path d="M24,7c-5.53516,0 -10.61328,4.20313 -14.59375,7.1875c-2.98047,2.23438 -5.22266,3.73438 -6.78125,4.96875c-0.78125,0.61719 -1.37891,1.17188 -1.84375,1.78125c-0.46484,0.60938 -0.78125,1.3125 -0.78125,2.0625c0,0.60938 0.38672,1.22266 0.84375,1.53125c0.45703,0.30859 0.95703,0.40625 1.5,0.46875c1.08984,0.125 2.375,-0.00391 3.8125,-0.34375c2.12891,-0.50391 4.53516,-1.43359 6.53125,-2.78125c-0.45703,2.26563 -0.6875,4.41406 -0.6875,6.125c0,3.15625 1.26953,5.58984 3.28125,7.21875c-1.06641,0.39844 -2.11328,0.87891 -3.125,1.40625c-0.00781,0.00391 -0.02344,-0.00391 -0.03125,0c-1.87109,0.87891 -3.22266,1.9375 -4.09375,3c-0.4375,0.53516 -0.77734,1.05078 -0.9375,1.625c-0.16016,0.57422 -0.11719,1.23047 0.21875,1.78125c0.38281,0.625 1.04297,0.87891 1.65625,0.9375c0.61328,0.05859 1.28125,-0.02734 2,-0.1875c1.44141,-0.31641 3.14844,-0.96094 4.96875,-1.8125c1.78125,-0.83203 3.19531,-1.51172 4.25,-2.25c0.75781,-0.53125 1.37891,-1.16797 1.65625,-1.9375c1.01563,0.13672 2.07422,0.21875 3.15625,0.21875c0.75391,0 1.49609,-0.02734 2.21875,-0.09375c0.08594,0.21094 0.18359,0.41016 0.3125,0.59375c0.33594,0.48047 0.78125,0.85156 1.3125,1.21875c1.0625,0.73438 2.46875,1.41797 4.25,2.25c1.82031,0.85156 3.52734,1.49609 4.96875,1.8125c0.71875,0.16016 1.38672,0.24609 2,0.1875c0.61328,-0.05859 1.30469,-0.3125 1.6875,-0.9375c0.33594,-0.55078 0.34766,-1.20703 0.1875,-1.78125c-0.16016,-0.57422 -0.46875,-1.08984 -0.90625,-1.625c-0.86328,-1.05469 -2.24609,-2.09375 -4.09375,-2.96875v-0.03125c-0.82812,-0.4375 -1.69141,-0.81641 -2.5625,-1.15625c2.21094,-1.62891 3.625,-4.16797 3.625,-7.46875c0,-1.67969 -0.14062,-3.80078 -0.53125,-6.0625c1.96875,1.29688 4.29297,2.22656 6.375,2.71875c1.4375,0.33984 2.72266,0.46875 3.8125,0.34375c0.54297,-0.0625 1.04297,-0.16016 1.5,-0.46875c0.45703,-0.30859 0.84375,-0.92187 0.84375,-1.53125c0,-0.75 -0.31641,-1.45312 -0.78125,-2.0625c-0.46484,-0.60937 -1.0625,-1.16406 -1.84375,-1.78125c-1.55859,-1.23437 -3.80078,-2.73437 -6.78125,-4.96875c-3.98047,-2.98437 -9.05859,-7.1875 -14.59375,-7.1875c-0.03125,0 -0.0625,0 -0.09375,0c-0.05469,0.00781 -0.10547,0.01563 -0.15625,0.03125c-0.24609,-0.01953 -0.49609,-0.03125 -0.75,-0.03125c-0.24219,0 -0.48047,0.01172 -0.71875,0.03125c-0.08984,-0.02344 -0.1875,-0.03516 -0.28125,-0.03125zM25,9c2.16406,0 3.85938,0.73047 5.28125,1.96875c1.42188,1.23828 2.54688,3.02734 3.40625,5.03125c1.71875,4.00781 2.3125,8.91797 2.3125,12c0,2.91016 -1.12891,4.76953 -3.0625,6.0625c-0.38281,0.25781 -0.80078,0.48047 -1.25,0.6875c-0.06641,0.02344 -0.12891,0.05469 -0.1875,0.09375c-1.78516,0.77344 -4.03906,1.15625 -6.5,1.15625c-3.1875,0 -6.00781,-0.62109 -7.9375,-1.90625c-1.92969,-1.28516 -3.0625,-3.14453 -3.0625,-6.09375c0,-3.05859 0.80469,-7.98047 2.625,-12c0.91016,-2.00781 2.04297,-3.78906 3.4375,-5.03125c1.39453,-1.24219 2.99219,-1.96875 4.9375,-1.96875zM25,10c-1.65625,0 -3,1.34375 -3,3c0,1.65625 1.34375,3 3,3c1.65625,0 3,-1.34375 3,-3c0,-1.65625 -1.34375,-3 -3,-3zM25,11c0.27734,0 0.5,0.22266 0.5,0.5c0,0.27734 -0.22266,0.5 -0.5,0.5c-0.55078,0 -1,0.44922 -1,1c0,0.27734 -0.22266,0.5 -0.5,0.5c-0.27734,0 -0.5,-0.22266 -0.5,-0.5c0,-1.10547 0.89453,-2 2,-2zM17.09375,11.3125c-0.90234,1.16016 -1.67969,2.44922 -2.3125,3.84375c-0.51562,1.14063 -0.94922,2.33594 -1.3125,3.53125c-0.10547,0.04688 -0.19922,0.10938 -0.28125,0.1875c-1.78906,1.78906 -4.90234,3.20313 -7.46875,3.8125c-1.28516,0.30469 -2.45703,0.42578 -3.15625,0.34375c-0.28125,-0.03125 -0.41016,-0.11719 -0.5,-0.15625c0.01953,-0.21094 0.03906,-0.39844 0.28125,-0.71875c0.28516,-0.375 0.8125,-0.86719 1.53125,-1.4375c1.44141,-1.14062 3.69922,-2.64062 6.71875,-4.90625c2,-1.5 4.22266,-3.17578 6.5,-4.5zM33.625,11.75c2.02344,1.24609 3.99219,2.72266 5.78125,4.0625c3.01953,2.26563 5.27734,3.76563 6.71875,4.90625c0.71875,0.57031 1.24609,1.0625 1.53125,1.4375c0.24219,0.32031 0.26172,0.50781 0.28125,0.71875c-0.08984,0.03906 -0.21875,0.125 -0.5,0.15625c-0.69922,0.08203 -1.87109,-0.03906 -3.15625,-0.34375c-2.56641,-0.60937 -5.67969,-2.02344 -7.46875,-3.8125c-0.01172,-0.01172 -0.01953,-0.01953 -0.03125,-0.03125c-0.33203,-1.24219 -0.74219,-2.46875 -1.25,-3.65625c-0.52344,-1.21875 -1.15625,-2.38281 -1.90625,-3.4375zM20.5,16.03125c-1.14062,0 -2.29297,0.39453 -3.1875,1.21875c-0.41406,0.37891 -0.44141,1.02344 -0.0625,1.4375c0.37891,0.41406 1.02344,0.44141 1.4375,0.0625c1.03516,-0.95312 2.58984,-0.95312 3.625,0c0.41406,0.37891 1.05859,0.35156 1.4375,-0.0625c0.37891,-0.41406 0.35156,-1.05859 -0.0625,-1.4375c-0.89453,-0.82422 -2.04687,-1.21875 -3.1875,-1.21875zM29.5,16.03125c-1.14062,0 -2.29297,0.39453 -3.1875,1.21875c-0.41406,0.37891 -0.44141,1.02344 -0.0625,1.4375c0.37891,0.41406 1.02344,0.44141 1.4375,0.0625c1.03516,-0.95312 2.58984,-0.95312 3.625,0c0.41406,0.37891 1.05859,0.35156 1.4375,-0.0625c0.37891,-0.41406 0.35156,-1.05859 -0.0625,-1.4375c-0.89453,-0.82422 -2.04687,-1.21875 -3.1875,-1.21875zM21.90625,19.96875c-0.04297,0.00781 -0.08594,0.01953 -0.125,0.03125c-0.46484,0.10547 -0.79297,0.52344 -0.78125,1c-0.01172,1.09375 0.875,1.99219 1.96875,2c0.01172,0 0.01953,0 0.03125,0c0.06641,0 0.12891,0.00781 0.21875,0c0.01172,0 0.01953,0 0.03125,0c0.64844,-0.05469 1.22656,-0.32031 1.75,-0.6875c0.53125,0.375 1.12109,0.63672 1.78125,0.6875c0.01172,0 0.01953,0 0.03125,0c1.11719,0.05469 2.10547,-0.82422 2.1875,-1.9375c0.03516,-0.55078 -0.38672,-1.02734 -0.9375,-1.0625c-0.55078,-0.03516 -1.02734,0.38672 -1.0625,0.9375c-0.00391,0.04297 -0.03125,0.05469 -0.0625,0.0625c-0.00781,0 -0.02344,0 -0.03125,0c-0.44531,-0.04297 -0.84766,-0.27344 -1.125,-0.625c-0.19141,-0.23828 -0.47656,-0.375 -0.78125,-0.375c-0.30469,0 -0.58984,0.13672 -0.78125,0.375c-0.28125,0.35938 -0.69922,0.58984 -1.15625,0.625c-0.01953,0 -0.04297,0 -0.0625,0c0.01172,-0.28906 -0.10547,-0.56641 -0.3125,-0.76172c-0.21094,-0.19922 -0.49609,-0.29687 -0.78125,-0.26953zM30.0625,24.9375c-0.08594,0.01172 -0.16797,0.03125 -0.25,0.0625c-0.08594,0.01953 -0.17187,0.05078 -0.25,0.09375c-1.11719,0.55469 -1.94531,1.40234 -2.34375,2.375c-0.39844,0.97266 -0.3125,2.1875 0.46875,3c0.70313,0.73047 1.87109,1.12109 3.09375,0.84375c1.22266,-0.27734 2.48828,-1.10937 3.9375,-2.625c0.29297,-0.24609 0.41797,-0.64062 0.32422,-1.00781c-0.09375,-0.37109 -0.39453,-0.65625 -0.76562,-0.73437c-0.375,-0.07812 -0.76172,0.06641 -0.99609,0.36719c-1.28125,1.34375 -2.32031,1.91406 -2.96875,2.0625c-0.64844,0.14844 -0.91797,-0.00391 -1.1875,-0.28125c-0.1875,-0.19531 -0.24219,-0.41016 -0.0625,-0.84375c0.17969,-0.43359 0.64453,-0.98047 1.375,-1.34375c0.52344,-0.125 0.85547,-0.63672 0.75391,-1.16406c-0.10156,-0.52734 -0.59766,-0.88281 -1.12891,-0.80469zM19.78125,25c-0.4375,0.07422 -0.77344,0.42969 -0.82422,0.87109c-0.04687,0.44141 0.19531,0.86328 0.60547,1.03516c0.73047,0.36328 1.19531,0.91016 1.375,1.34375c0.17969,0.43359 0.125,0.64844 -0.0625,0.84375c-0.26953,0.28125 -0.53906,0.42969 -1.1875,0.28125c-0.64844,-0.14844 -1.6875,-0.71875 -2.96875,-2.0625c-0.23437,-0.30078 -0.62109,-0.44531 -0.99609,-0.36719c-0.37109,0.07813 -0.67187,0.36328 -0.76562,0.73438c-0.09375,0.36719 0.03125,0.76172 0.32422,1.00781c1.44922,1.51563 2.71484,2.34766 3.9375,2.625c1.22266,0.27734 2.39063,-0.11328 3.09375,-0.84375c0.78125,-0.8125 0.86719,-2.02734 0.46875,-3c-0.39844,-0.97266 -1.22656,-1.82031 -2.34375,-2.375c-0.17578,-0.08594 -0.37109,-0.11719 -0.5625,-0.09375c-0.03125,0 -0.0625,0 -0.09375,0zM17.46875,36.59375c0.73438,0.33594 1.52344,0.57031 2.34375,0.78125c-0.14062,0.19141 -0.37109,0.43359 -0.78125,0.71875c-0.82031,0.57422 -2.16797,1.23438 -3.9375,2.0625c-1.73047,0.80859 -3.36719,1.42578 -4.5625,1.6875c-0.59766,0.13281 -1.10156,0.15234 -1.375,0.125c-0.11328,-0.01172 -0.13281,-0.02734 -0.15625,-0.03125c-0.00391,-0.01562 -0.00781,-0.00781 0.03125,-0.15625c0.05469,-0.20312 0.22266,-0.53125 0.53125,-0.90625c0.61719,-0.75391 1.77344,-1.66016 3.4375,-2.4375c0.01172,-0.01172 0.01953,-0.01953 0.03125,-0.03125c1.33203,-0.69531 2.72656,-1.26172 4.15625,-1.71875c0.09766,-0.01562 0.19141,-0.04687 0.28125,-0.09375zM32,36.78125c1.37891,0.41406 2.73047,0.94922 4,1.625c0.01172,0.01172 0.01953,0.01953 0.03125,0.03125c1.66406,0.77734 2.82031,1.68359 3.4375,2.4375c0.30859,0.375 0.47656,0.70313 0.53125,0.90625c0.03906,0.14844 0.03516,0.14063 0.03125,0.15625c-0.02344,0.00391 -0.04297,0.01953 -0.15625,0.03125c-0.27344,0.02734 -0.77734,0.00781 -1.375,-0.125c-1.19531,-0.26172 -2.83203,-0.87891 -4.5625,-1.6875c-1.76953,-0.82812 -3.14062,-1.48828 -3.96875,-2.0625c-0.26562,-0.18359 -0.44531,-0.34375 -0.59375,-0.5c0.92188,-0.19141 1.80078,-0.47266 2.625,-0.8125z"></path></g></g></svg>